<svg width="67" height="58" viewBox="0 0 67 58" fill="none" xmlns="http://www.w3.org/2000/svg">
<path d="M0 29C0 12.9837 12.9837 0 29 0H38C54.0163 0 67 12.9837 67 29C67 45.0163 54.0163 58 38 58H29C12.9837 58 0 45.0163 0 29Z" fill="#F4B400"/>
<path fill-rule="evenodd" clip-rule="evenodd" d="M29.4719 13C29.2479 13.0038 29.028 13.0613 28.8304 13.1676C28.6328 13.274 28.4632 13.4261 28.3357 13.6115C28.2085 13.7971 28.1079 13.9997 28.0367 14.2134C27.9338 14.5023 27.8453 14.8755 27.7664 15.2053L27.7353 15.3233C27.5344 16.1563 27.3382 16.8328 27.0584 17.2156C26.8824 17.4176 26.6707 17.585 26.434 17.7091C26.0694 17.9193 25.6915 18.1051 25.3026 18.2653L25.0012 18.3953C24.7147 18.5149 24.4315 18.6426 24.1521 18.7781C23.9894 18.8575 23.7813 18.9707 23.6019 19.1151C23.426 19.2467 23.2823 19.4171 23.182 19.6133C23.0817 19.8094 23.0273 20.0261 23.023 20.2467C23.023 20.9063 23.4871 21.2819 23.5995 21.3734C23.7813 21.5178 23.9894 21.631 24.1497 21.7129C24.3913 21.8332 24.7046 21.968 25.0012 22.0956L25.3026 22.2257C25.714 22.4038 26.1016 22.5844 26.434 22.7794C26.6701 22.9045 26.881 23.0727 27.056 23.2753C27.3382 23.6581 27.5344 24.3347 27.7353 25.1677L27.7664 25.288C27.8453 25.613 27.9338 25.9862 28.0367 26.2751C28.1079 26.4888 28.2085 26.6915 28.3357 26.877C28.4792 27.0792 28.8452 27.4885 29.4719 27.4885C30.101 27.4885 30.4669 27.0792 30.6105 26.8794C30.7376 26.6939 30.8383 26.4913 30.9095 26.2775C31.0123 25.9862 31.1008 25.613 31.1798 25.2856L31.2085 25.1652C31.4118 24.3347 31.6079 23.6581 31.8878 23.2753C32.0637 23.0733 32.2754 22.9059 32.5121 22.7818C32.8759 22.5717 33.2531 22.3859 33.6411 22.2257L33.9449 22.0956C34.2415 21.968 34.5549 21.8332 34.7941 21.7129C34.9567 21.631 35.1648 21.5202 35.3442 21.3758C35.5202 21.2442 35.6638 21.0738 35.7642 20.8777C35.8645 20.6815 35.9189 20.4648 35.9231 20.2443C35.9184 20.0247 35.8641 19.8091 35.7642 19.6139C35.6643 19.4186 35.5215 19.2489 35.3466 19.1175C35.1747 18.9853 34.9895 18.8716 34.7941 18.7781C34.5549 18.6577 34.2415 18.5229 33.9449 18.3953L33.6411 18.2653C33.2531 18.1058 32.876 17.9208 32.5121 17.7115C32.2761 17.5864 32.0652 17.4183 31.8902 17.2156C31.6079 16.8328 31.4118 16.1563 31.2085 15.3233L31.1798 15.2029C31.1036 14.8702 31.0134 14.5408 30.9095 14.2158C30.8385 14.0012 30.7378 13.7978 30.6105 13.6115C30.4824 13.4262 30.3123 13.2744 30.1143 13.1684C29.9163 13.0625 29.6961 13.0056 29.4719 13.0024V13ZM30.4717 30.3776C31.2289 30.19 31.9189 29.7934 32.4641 29.2323C33.0093 28.6712 33.388 27.9681 33.5574 27.202L33.5694 27.1587C33.6474 26.8291 33.7391 26.503 33.8444 26.1812C33.9557 25.8395 34.0859 25.5043 34.2343 25.1773L34.2678 25.1532C34.4616 25.0208 34.7319 24.8643 35.05 24.703C35.4036 24.526 35.7643 24.3637 36.1312 24.2167L36.1838 24.1926C37.1546 23.83 37.9574 23.118 38.4371 22.1944L46.6105 19.912L46.6225 19.9096C47.015 19.8028 47.4264 19.7874 47.8257 19.8644C48.225 19.9413 48.6016 20.1088 48.9271 20.354C49.2525 20.5992 49.5183 20.9158 49.7042 21.2797C49.89 21.6436 49.9912 22.0453 50 22.4544V36.483C49.9736 37.5338 49.621 38.5499 48.9915 39.3886C48.3621 40.2273 47.4876 40.8466 46.4906 41.1595C45.4936 41.4724 44.4244 41.4632 43.4329 41.1333C42.4413 40.8033 41.5774 40.1691 40.9623 39.3197C40.3472 38.4702 40.0118 37.4483 40.0032 36.3972C39.9946 35.3462 40.3133 34.3188 40.9145 33.4593C41.5156 32.5999 42.3691 31.9515 43.3551 31.6052C44.3411 31.2588 45.4101 31.232 46.412 31.5284V28.0374L34.0573 31.4898V40.9683C34.0573 42.0249 33.7269 43.0546 33.1128 43.9116C32.4987 44.7686 31.6322 45.4092 30.6361 45.7427C29.64 46.0763 28.5649 46.0857 27.5631 45.7698C26.5614 45.4538 25.6839 44.8285 25.055 43.9825C24.4262 43.1364 24.0779 42.1126 24.0595 41.0562C24.0412 39.9998 24.3537 38.9644 24.9528 38.0967C25.5519 37.2291 26.4072 36.5733 27.3973 36.2223C28.3875 35.8713 29.4623 35.8429 30.4693 36.1412L30.4717 30.3776ZM21.5065 26.7446C21.9823 26.7446 22.4386 26.9348 22.7751 27.2734C23.1115 27.6121 23.3005 28.0713 23.3005 28.5502V29.4747H24.219C24.6948 29.4747 25.1512 29.665 25.4876 30.0036C25.824 30.3422 26.013 30.8015 26.013 31.2804C26.013 31.7593 25.824 32.2185 25.4876 32.5572C25.1512 32.8958 24.6948 33.086 24.219 33.086H23.3005V34.0105C23.3005 34.4894 23.1115 34.9487 22.7751 35.2873C22.4386 35.6259 21.9823 35.8162 21.5065 35.8162C21.0307 35.8162 20.5744 35.6259 20.238 35.2873C19.9015 34.9487 19.7125 34.4894 19.7125 34.0105V33.086H18.794C18.3182 33.086 17.8619 32.8958 17.5254 32.5572C17.189 32.2185 17 31.7593 17 31.2804C17 30.8015 17.189 30.3422 17.5254 30.0036C17.8619 29.665 18.3182 29.4747 18.794 29.4747H19.7125V28.5526C19.7125 28.0738 19.9015 27.6145 20.238 27.2759C20.5744 26.9372 21.0307 26.7446 21.5065 26.7446Z" fill="#674125"/>
</svg>
