<svg width="30" height="30" viewBox="0 0 30 30" fill="none" xmlns="http://www.w3.org/2000/svg">
<path d="M22.0312 10.3126H15.9375V18.8086C15.9375 19.0573 15.8387 19.2957 15.6629 19.4716C15.4871 19.6474 15.2486 19.7461 15 19.7461C14.7514 19.7461 14.5129 19.6474 14.3371 19.4716C14.1613 19.2957 14.0625 19.0573 14.0625 18.8086V10.3126H7.96875C7.09879 10.3135 6.26474 10.6595 5.64958 11.2746C5.03443 11.8898 4.68843 12.7238 4.6875 13.5938V24.8438C4.68843 25.7138 5.03443 26.5478 5.64958 27.163C6.26474 27.7781 7.09879 28.1241 7.96875 28.1251H22.0312C22.9012 28.1241 23.7353 27.7781 24.3504 27.163C24.9656 26.5478 25.3116 25.7138 25.3125 24.8438V13.5938C25.3116 12.7238 24.9656 11.8898 24.3504 11.2746C23.7353 10.6595 22.9012 10.3135 22.0312 10.3126ZM15.9375 5.07603L19.0248 8.16275C19.2021 8.33114 19.4381 8.42364 19.6825 8.42051C19.927 8.41738 20.1606 8.31887 20.3334 8.14599C20.5063 7.97312 20.6048 7.73955 20.608 7.49508C20.6111 7.25062 20.5186 7.0146 20.3502 6.83736L15.6627 2.14986C15.4869 1.97418 15.2485 1.87549 15 1.87549C14.7515 1.87549 14.5131 1.97418 14.3373 2.14986L9.64981 6.83736C9.48141 7.0146 9.38892 7.25062 9.39205 7.49508C9.39518 7.73955 9.49368 7.97312 9.66656 8.14599C9.83944 8.31887 10.073 8.41738 10.3175 8.42051C10.5619 8.42364 10.7979 8.33114 10.9752 8.16275L14.0625 5.07603V10.3126H15.9375V5.07603Z" fill="url(#paint0_linear_103_181)"/>
<defs>
<linearGradient id="paint0_linear_103_181" x1="15" y1="1.87549" x2="15" y2="28.1251" gradientUnits="userSpaceOnUse">
<stop stop-color="#5D3928"/>
<stop offset="1" stop-color="#F4B400"/>
</linearGradient>
</defs>
</svg>
