<svg width="38" height="38" viewBox="0 0 38 38" fill="none" xmlns="http://www.w3.org/2000/svg">
<path fill-rule="evenodd" clip-rule="evenodd" d="M31.6667 7.91669V11.0833L26.5703 11.0831C29.2479 13.4328 30.889 16.8715 30.8858 20.6183C30.881 26.4206 26.9343 31.4778 21.307 32.8923C15.6798 34.3067 9.81084 31.7168 7.06296 26.6063C4.31516 21.496 5.39104 15.1718 9.6742 11.2575C10.2793 12.2203 11.1325 13.0024 12.1442 13.5217C11.0698 14.3897 10.2035 15.4873 9.60896 16.734C9.01439 17.9806 8.70664 19.3446 8.70832 20.7258C8.78625 25.9168 13.0168 30.0839 18.2083 30.0833C22.9637 30.1617 27.0188 26.6548 27.6271 21.9379C28.0816 18.4137 26.5038 15.0548 23.7502 13.1098L23.75 19H20.5833V7.91669H31.6667ZM15.0417 4.75C16.7906 4.75 18.2083 6.1678 18.2083 7.91669C18.2083 9.66558 16.7906 11.0833 15.0417 11.0833C13.2928 11.0833 11.875 9.66558 11.875 7.91669C11.875 6.1678 13.2928 4.75 15.0417 4.75Z" fill="#F4B400"/>
</svg>
