<svg width="30" height="30" viewBox="0 0 30 30" fill="none" xmlns="http://www.w3.org/2000/svg">
<path d="M15.3625 6.51255L17.2375 8.38755C17.3537 8.50471 17.492 8.5977 17.6443 8.66116C17.7966 8.72462 17.96 8.75729 18.125 8.75729C18.29 8.75729 18.4534 8.72462 18.6057 8.66116C18.758 8.5977 18.8963 8.50471 19.0125 8.38755C19.2022 8.18843 19.3209 7.9323 19.3503 7.65886C19.3797 7.38542 19.3181 7.10992 19.175 6.87505H23.75C24.0815 6.87505 24.3995 6.74335 24.6339 6.50893C24.8683 6.27451 25 5.95657 25 5.62505C25 5.29353 24.8683 4.97558 24.6339 4.74116C24.3995 4.50674 24.0815 4.37505 23.75 4.37505H19.175C19.3181 4.14017 19.3797 3.86467 19.3503 3.59123C19.3209 3.31779 19.2022 3.06167 19.0125 2.86255C18.8963 2.74539 18.758 2.65239 18.6057 2.58893C18.4534 2.52547 18.29 2.4928 18.125 2.4928C17.96 2.4928 17.7966 2.52547 17.6443 2.58893C17.492 2.65239 17.3537 2.74539 17.2375 2.86255L15.3625 4.73755C15.2487 4.85643 15.1595 4.99661 15.1 5.15005C14.975 5.45437 14.975 5.79572 15.1 6.10005C15.1595 6.25348 15.2487 6.39367 15.3625 6.51255ZM28.65 11.4C28.5905 11.2466 28.5013 11.1064 28.3875 10.9875L26.5125 9.11255C26.3963 8.99539 26.258 8.90239 26.1057 8.83893C25.9534 8.77547 25.79 8.7428 25.625 8.7428C25.46 8.7428 25.2966 8.77547 25.1443 8.83893C24.992 8.90239 24.8537 8.99539 24.7375 9.11255C24.5478 9.31167 24.4291 9.56779 24.3997 9.84123C24.3703 10.1147 24.4319 10.3902 24.575 10.625H20C19.6685 10.625 19.3505 10.7567 19.1161 10.9912C18.8817 11.2256 18.75 11.5435 18.75 11.875C18.75 12.2066 18.8817 12.5245 19.1161 12.7589C19.3505 12.9933 19.6685 13.125 20 13.125H24.575C24.4319 13.3599 24.3703 13.6354 24.3997 13.9089C24.4291 14.1823 24.5478 14.4384 24.7375 14.6375C24.8537 14.7547 24.992 14.8477 25.1443 14.9112C25.2966 14.9746 25.46 15.0073 25.625 15.0073C25.79 15.0073 25.9534 14.9746 26.1057 14.9112C26.258 14.8477 26.3963 14.7547 26.5125 14.6375L28.3875 12.7625C28.5013 12.6437 28.5905 12.5035 28.65 12.35C28.775 12.0457 28.775 11.7044 28.65 11.4ZM13.75 12.5C12.7611 12.5 11.7944 12.7933 10.9721 13.3427C10.1499 13.8921 9.50904 14.673 9.1306 15.5866C8.75216 16.5003 8.65315 17.5056 8.84607 18.4755C9.039 19.4454 9.5152 20.3363 10.2145 21.0356C10.9137 21.7348 11.8046 22.211 12.7745 22.404C13.7445 22.5969 14.7498 22.4979 15.6634 22.1194C16.577 21.741 17.3579 21.1001 17.9073 20.2779C18.4568 19.4557 18.75 18.489 18.75 17.5C18.75 16.174 18.2232 14.9022 17.2855 13.9645C16.3479 13.0268 15.0761 12.5 13.75 12.5ZM13.75 20C13.2555 20 12.7722 19.8534 12.3611 19.5787C11.95 19.304 11.6295 18.9136 11.4403 18.4568C11.2511 17.9999 11.2016 17.4973 11.298 17.0123C11.3945 16.5274 11.6326 16.0819 11.9822 15.7323C12.3319 15.3826 12.7773 15.1445 13.2623 15.0481C13.7472 14.9516 14.2499 15.0011 14.7067 15.1903C15.1635 15.3796 15.554 15.7 15.8287 16.1111C16.1034 16.5222 16.25 17.0056 16.25 17.5C16.25 18.1631 15.9866 18.799 15.5178 19.2678C15.0489 19.7367 14.413 20 13.75 20ZM25 16.25C24.6685 16.25 24.3505 16.3817 24.1161 16.6162C23.8817 16.8506 23.75 17.1685 23.75 17.5V23.75C23.75 24.0816 23.6183 24.3995 23.3839 24.6339C23.1495 24.8684 22.8315 25 22.5 25H5C4.66848 25 4.35054 24.8684 4.11612 24.6339C3.8817 24.3995 3.75 24.0816 3.75 23.75V13.75C3.75 13.4185 3.8817 13.1006 4.11612 12.8662C4.35054 12.6317 4.66848 12.5 5 12.5H7.5C7.77415 12.5135 8.04509 12.4363 8.271 12.2804C8.49691 12.1245 8.66524 11.8986 8.75 11.6375L9.425 9.61255C9.50314 9.37178 9.65253 9.16041 9.85341 9.0064C10.0543 8.85239 10.2972 8.763 10.55 8.75005H12.5C12.8315 8.75005 13.1495 8.61835 13.3839 8.38393C13.6183 8.14951 13.75 7.83157 13.75 7.50005C13.75 7.16853 13.6183 6.85058 13.3839 6.61616C13.1495 6.38174 12.8315 6.25005 12.5 6.25005H10.55C9.76076 6.24976 8.99155 6.4985 8.3519 6.96084C7.71226 7.42318 7.2348 8.07555 6.9875 8.82505L6.6 10H5C4.00544 10 3.05161 10.3951 2.34835 11.0984C1.64509 11.8017 1.25 12.7555 1.25 13.75V23.75C1.25 24.7446 1.64509 25.6984 2.34835 26.4017C3.05161 27.105 4.00544 27.5 5 27.5H22.5C23.4946 27.5 24.4484 27.105 25.1517 26.4017C25.8549 25.6984 26.25 24.7446 26.25 23.75V17.5C26.25 17.1685 26.1183 16.8506 25.8839 16.6162C25.6495 16.3817 25.3315 16.25 25 16.25Z" fill="url(#paint0_linear_103_184)"/>
<defs>
<linearGradient id="paint0_linear_103_184" x1="14.9969" y1="2.4928" x2="14.9969" y2="27.5" gradientUnits="userSpaceOnUse">
<stop stop-color="#5D3928"/>
<stop offset="1" stop-color="#F4B400"/>
</linearGradient>
</defs>
</svg>
