<svg width="38" height="38" viewBox="0 0 38 38" fill="none" xmlns="http://www.w3.org/2000/svg">
<path d="M3.16663 9.49996C3.16663 6.51379 3.16663 5.02229 4.09446 4.09446C5.02229 3.16663 6.51379 3.16663 9.49996 3.16663C12.4861 3.16663 13.9776 3.16663 14.9055 4.09446C15.8333 5.02229 15.8333 6.51379 15.8333 9.49996V28.5C15.8333 31.4861 15.8333 32.9776 14.9055 33.9055C13.9776 34.8333 12.4861 34.8333 9.49996 34.8333C6.51379 34.8333 5.02229 34.8333 4.09446 33.9055C3.16663 32.9776 3.16663 31.4861 3.16663 28.5V9.49996ZM22.1666 9.49996C22.1666 6.51379 22.1666 5.02229 23.0945 4.09446C24.0223 3.16663 25.5138 3.16663 28.5 3.16663C31.4861 3.16663 32.9776 3.16663 33.9055 4.09446C34.8333 5.02229 34.8333 6.51379 34.8333 9.49996V28.5C34.8333 31.4861 34.8333 32.9776 33.9055 33.9055C32.9776 34.8333 31.4861 34.8333 28.5 34.8333C25.5138 34.8333 24.0223 34.8333 23.0945 33.9055C22.1666 32.9776 22.1666 31.4861 22.1666 28.5V9.49996Z" fill="#F4B400"/>
</svg>
